# xmcd CD Database Entry
#
# Track frame offsets:
# 150
# 14492
# 32062
# 46085
# 64945
# 79772
# 96967
# 113660
# 130755
# 144930
# 161780
# 184235
#
# Disc length: 2625 seconds
#
# Revision: 1
# Processed by: cddbd v1.4PL0 Copyright (c) Steve Scherf et al.
# Submitted via: tcd 2.0b
#
DISCID=9c0a3f0c
DTITLE=Mike Boudreau et le Boppin Blues Band - Nous avions rendez-vo
DTITLE=us...
DYEAR=1900
DGENRE=
TTITLE0=L'herbe est pas plus verte
TTITLE1=Tout l'monde s'ennuie
TTITLE2=Ma p'tite cabane
TTITLE3=Si tu m'aimes
TTITLE4=Y as-tu moyen d'apprendre ?
TTITLE5=Loin dans l'sud
TTITLE6=Blues en blouson
TTITLE7=Drôles de chaussures
TTITLE8=Le temps raccourcit
TTITLE9=Ma meilleure amie
TTITLE10=Nous avions rendez-vous...
TTITLE11=La fuite en la bémol mineur
EXTD=
EXTT0=
EXTT1=
EXTT2=
EXTT3=
EXTT4=
EXTT5=
EXTT6=
EXTT7=
EXTT8=
EXTT9=
EXTT10=
EXTT11=
PLAYORDER=
